<?xml version="1.0" encoding="UTF-8" standalone="no"?>
<!-- Created with Inkscape (http://www.inkscape.org/) -->

<svg
   version="1.1"
   id="svg2"
   width="404.02698"
   height="311.9845"
   viewBox="0 0 404.02698 311.9845"
   sodipodi:docname="LOGO_tangram.svg"
   xml:space="preserve"
   inkscape:version="1.2.1 (9c6d41e410, 2022-07-14)"
   xmlns:inkscape="http://www.inkscape.org/namespaces/inkscape"
   xmlns:sodipodi="http://sodipodi.sourceforge.net/DTD/sodipodi-0.dtd"
   xmlns="http://www.w3.org/2000/svg"
   xmlns:svg="http://www.w3.org/2000/svg"><defs
     id="defs6" /><sodipodi:namedview
     id="namedview4"
     pagecolor="#ffffff"
     bordercolor="#000000"
     borderopacity="0.25"
     inkscape:showpageshadow="2"
     inkscape:pageopacity="0.0"
     inkscape:pagecheckerboard="0"
     inkscape:deskcolor="#d1d1d1"
     showgrid="false"
     inkscape:zoom="0.80212425"
     inkscape:cx="1441.7966"
     inkscape:cy="1381.9555"
     inkscape:window-width="1920"
     inkscape:window-height="991"
     inkscape:window-x="2391"
     inkscape:window-y="-9"
     inkscape:window-maximized="1"
     inkscape:current-layer="g10" /><g
     id="g10"
     inkscape:groupmode="layer"
     inkscape:label="Page 1"
     transform="matrix(1.3333333,0,0,-1.3333333,-1776.8568,4.3400879)"><path
       style="fill:#ffffff;stroke-width:0.304083"
       d="m 1406.5339,-198.48091 c -18.0625,17.73773 -33.8662,33.2679 -35.1192,34.51148 l -2.2781,2.26107 h 69.7842 69.7842 l -34.5125,-34.51347 c -18.9819,-18.98241 -34.5811,-34.51257 -34.665,-34.51148 -0.084,10e-4 -14.931,14.51467 -32.9936,32.2524 z m 172.9521,18.01848 -18.9246,18.60203 18.8721,0.0783 c 10.3797,0.0431 27.2775,0.0431 37.5507,0 l 18.6786,-0.0783 -18.6261,-18.60203 -18.6261,-18.60204 z m -212.3308,59.34934 c 18.982,18.98248 34.6126,34.479328 34.7348,34.437448 0.2307,-0.0791 70.1739,-68.720268 70.1739,-68.867588 0,-0.0459 -31.3698,-0.0835 -69.7106,-0.0835 h -69.7107 z m 147.1765,-9.73062 c 13.6298,13.63063 24.8801,24.74868 25.0006,24.70678 0.1205,-0.0419 8.9171,-8.62855 19.548,-19.08141 10.6309,-10.45287 21.9585,-21.56461 25.1724,-24.69276 l 5.8435,-5.68754 -50.173,-0.014 -50.1731,-0.014 z m -26.7595,19.00707 v 37.554308 l 17.0286,17.02663 17.0287,17.02664 v -37.55431 -37.554298 l -17.0287,-17.02663 -17.0286,-17.02664 z m -85.2954,33.914978 c -12.878,5.75566 -23.5274,10.50569 -23.6654,10.55563 -0.1821,0.0659 20.4638,47.01736 20.9306,47.59894 0.057,0.0713 47.2508,-20.8532 47.5208,-21.06959 0.1328,-0.10642 -21.0474,-47.584 -21.2196,-47.56584 -0.084,0.009 -10.6885,4.72521 -23.5664,10.48086 z m 125.4493,43.47129 -0.015,37.7054203 18.6825,-18.6807203 18.6826,-18.68073 -9.0966,-9.29402 c -5.0031,-5.11171 -13.4035,-13.67283 -18.6676,-19.02469 l -9.571,-9.73067 -0.015,37.70541 z"
       id="path1203" /></g></svg>
